Coordinates
version=1
nRows=30
nColumns=21
inDegrees=yes

Units are S.I. units (second, meters, Newtons, ...)
If the header above contains a line with 'inDegrees', this indicates whether rotational values are in degrees (yes) or radians (no).

endheader
time	sternoclavicular_r2	sternoclavicular_r3	unrotscap_r3	unrotscap_r2	acromioclavicular_r2	acromioclavicular_r3	acromioclavicular_r1	unrothum_r1	unrothum_r3	unrothum_r2	elv_angle	shoulder_elev	shoulder1_r2	shoulder_rot	elbow_flexion	pro_sup	deviation	flexion	wrist_hand_r1	wrist_hand_r3
      0.00000000	     -0.00540018	      0.00228726	     -0.00228726	      0.00540018	     -0.00109343	      0.00883669	      0.00397203	     -0.00397203	     -0.00883669	      0.00109343	     18.20387480	      0.02231474	    -18.20387480	    -12.09422766	    129.99686413	      0.00000000	      0.00000000	     -0.00000000	     -0.00000000	      0.00000000
      0.10101010	     -0.00547956	      0.00232088	     -0.00232088	      0.00547956	     -0.00110950	      0.00896658	      0.00403042	     -0.00403042	     -0.00896658	      0.00110950	     17.81763653	      0.02264275	    -17.81763653	    -12.09389520	    129.99686413	      0.00000000	      0.00000000	     -0.00000000	     -0.00000000	      0.00000000
      0.20202020	     -0.00555855	      0.00235434	     -0.00235434	      0.00555855	     -0.00112549	      0.00909585	      0.00408852	     -0.00408852	     -0.00909585	      0.00112549	     17.43504790	      0.02296918	    -17.43504790	    -12.09417534	    129.99686379	      0.00000000	      0.00000000	     -0.00000000	     -0.00000000	      0.00000000
      0.30303030	     -0.00563010	      0.00238464	     -0.00238464	      0.00563010	     -0.00113998	      0.00921292	      0.00414114	     -0.00414114	     -0.00921292	      0.00113998	     17.05577627	      0.02326482	    -17.05577627	    -12.09688619	    129.99686211	      0.00000000	      0.00000000	     -0.00000000	     -0.00000000	      0.00000000
      0.40404040	     -0.00568485	      0.00240783	     -0.00240783	      0.00568485	     -0.00115107	      0.00930251	      0.00418141	     -0.00418141	     -0.00930251	      0.00115107	     16.67890185	      0.02349104	    -16.67890185	    -12.10434267	    129.99685781	      0.00000000	      0.00000000	     -0.00000000	     -0.00000000	      0.00000000
      0.50505051	     -0.00571398	      0.00242017	     -0.00242017	      0.00571398	     -0.00115696	      0.00935017	      0.00420284	     -0.00420284	     -0.00935017	      0.00115696	     16.30289779	      0.02361141	    -16.30289779	    -12.11870653	    129.99684968	      0.00000000	      0.00000000	     -0.00000000	     -0.00000000	      0.00000000
      0.60606061	     -0.00570986	      0.00241843	     -0.00241843	      0.00570986	     -0.00115613	      0.00934344	      0.00419981	     -0.00419981	     -0.00934344	      0.00115613	     15.92557296	      0.02359441	    -15.92557296	    -12.14198244	    129.99683652	      0.00000000	      0.00000000	     -0.00000000	     -0.00000000	      0.00000000
      0.70707071	     -0.00566684	      0.00240021	     -0.00240021	      0.00566684	     -0.00114742	      0.00927305	      0.00416817	     -0.00416817	     -0.00927305	      0.00114742	     15.54395103	      0.02341665	    -15.54395103	    -12.17601223	    129.99681714	      0.00000000	      0.00000000	     -0.00000000	     -0.00000000	      0.00000000
      0.80808081	     -0.00558195	      0.00236425	     -0.00236425	      0.00558195	     -0.00113023	      0.00913413	      0.00410573	     -0.00410573	     -0.00913413	      0.00113023	     15.15409597	      0.02306586	    -15.15409597	    -12.22246805	    129.99679032	      0.00000000	      0.00000000	     -0.00000000	     -0.00000000	      0.00000000
      0.90909091	     -0.00545532	      0.00231062	     -0.00231062	      0.00545532	     -0.00110459	      0.00892692	      0.00401259	     -0.00401259	     -0.00892692	      0.00110459	     14.75094735	      0.02254261	    -14.75094735	    -12.28284457	    129.99675474	      0.00000000	      0.00000000	     -0.00000000	     -0.00000000	      0.00000000
      1.01010101	     -0.00529020	      0.00224068	     -0.00224068	      0.00529020	     -0.00107116	      0.00865672	      0.00389113	     -0.00389113	     -0.00865672	      0.00107116	     14.32827772	      0.02186027	    -14.32827772	    -12.35845063	    129.99670893	      0.00000000	      0.00000000	     -0.00000000	     -0.00000000	      0.00000000
      1.11111111	     -0.00509243	      0.00215691	     -0.00215691	      0.00509243	     -0.00103111	      0.00833310	      0.00374567	     -0.00374567	     -0.00833310	      0.00103111	     13.87886469	      0.02104305	    -13.87886469	    -12.45040141	    129.99665121	      0.00000000	      0.00000000	     -0.00000000	     -0.00000000	      0.00000000
      1.21212121	     -0.00486966	      0.00206256	     -0.00206256	      0.00486966	     -0.00098601	      0.00796855	      0.00358181	     -0.00358181	     -0.00796855	      0.00098601	     13.39482936	      0.02012250	    -13.39482936	    -12.55961328	    129.99657956	      0.00000000	      0.00000000	     -0.00000000	     -0.00000000	      0.00000000
      1.31313131	     -0.00463035	      0.00196120	     -0.00196120	      0.00463035	     -0.00093755	      0.00757696	      0.00340579	     -0.00340579	     -0.00757696	      0.00093755	     12.86788883	      0.01913362	    -12.86788883	    -12.68680381	    129.99649156	      0.00000000	      0.00000000	     -0.00000000	     -0.00000000	      0.00000000
      1.41414141	     -0.00453088	      0.00191906	     -0.00191906	      0.00453088	     -0.00091741	      0.00741419	      0.00333263	     -0.00333263	     -0.00741419	      0.00091741	     12.29099319	      0.01872258	    -12.29099319	    -12.81975197	    129.99638622	      0.00000000	      0.00000000	     -0.00000000	     -0.00000000	      0.00000000
      1.51515152	     -0.00413524	      0.00175149	     -0.00175149	      0.00413524	     -0.00083730	      0.00676678	      0.00304162	     -0.00304162	     -0.00676678	      0.00083730	     11.65068736	      0.01708773	    -11.65068736	    -12.99704494	    129.99625337	      0.00000000	      0.00000000	     -0.00000000	     -0.00000000	      0.00000000
      1.61616162	     -0.00389504	      0.00164975	     -0.00164975	      0.00389504	     -0.00078867	      0.00637372	      0.00286494	     -0.00286494	     -0.00637372	      0.00078867	     10.93475335	      0.01609515	    -10.93475335	    -13.18055270	    129.99609417	      0.00000000	      0.00000000	     -0.00000000	     -0.00000000	      0.00000000
      1.71717172	     -0.00366850	      0.00155380	     -0.00155380	      0.00366850	     -0.00074280	      0.00600302	      0.00269832	     -0.00269832	     -0.00600302	      0.00074280	     10.12506916	      0.01515906	    -10.12506916	    -13.38304956	    129.99589970	      0.00000000	      0.00000000	     -0.00000000	     -0.00000000	      0.00000000
      1.81818182	     -0.00346181	      0.00146626	     -0.00146626	      0.00346181	     -0.00070095	      0.00566480	      0.00254629	     -0.00254629	     -0.00566480	      0.00070095	      9.19380981	      0.01430498	     -9.19380981	    -13.60432531	    129.99566063	      0.00000000	      0.00000000	     -0.00000000	     -0.00000000	      0.00000000
      1.91919192	     -0.00328183	      0.00139003	     -0.00139003	      0.00328183	     -0.00066450	      0.00537029	      0.00241391	     -0.00241391	     -0.00537029	      0.00066450	      8.09669783	      0.01356126	     -8.09669783	    -13.84401560	    129.99536377	      0.00000000	      0.00000000	     -0.00000000	     -0.00000000	      0.00000000
      2.02020202	     -0.00302569	      0.00128154	     -0.00128154	      0.00302569	     -0.00061264	      0.00495115	      0.00222551	     -0.00222551	     -0.00495115	      0.00061264	      6.76168536	      0.01250284	     -6.76168536	    -14.09840335	    129.99498835	      0.00000000	      0.00000000	     -0.00000000	     -0.00000000	      0.00000000
      2.12121212	     -0.00287860	      0.00121924	     -0.00121924	      0.00287860	     -0.00058286	      0.00471046	      0.00211732	     -0.00211732	     -0.00471046	      0.00058286	      5.05011794	      0.01189503	     -5.05011794	    -14.37480230	    129.99451323	      0.00000000	      0.00000000	     -0.00000000	     -0.00000000	      0.00000000
      2.22222222	     -0.00277568	      0.00117565	     -0.00117565	      0.00277568	     -0.00056202	      0.00454203	      0.00204161	     -0.00204161	     -0.00454203	      0.00056202	      2.68004304	      0.01146971	     -2.68004304	    -14.66722828	    129.99391357	      0.00000000	      0.00000000	     -0.00000000	     -0.00000000	      0.00000000
      2.32323232	     -0.00266434	      0.00112849	     -0.00112849	      0.00266434	     -0.00053948	      0.00435985	      0.00195972	     -0.00195972	     -0.00435985	      0.00053948	     -1.10849285	      0.01100966	      1.10849285	    -14.97594326	    129.99313403	      0.00000000	      0.00000000	     -0.00000000	     -0.00000000	      0.00000000
      2.42424242	     -0.00317269	      0.00134380	     -0.00134380	      0.00317269	     -0.00064241	      0.00519169	      0.00233363	     -0.00233363	     -0.00519169	      0.00064241	     -2.02963272	      0.01311026	      2.02963272	    -15.28648329	    129.99176145	      0.00000000	      0.00000000	     -0.00000000	     -0.00000000	      0.00000000
      2.52525253	     -0.00308249	      0.00130560	     -0.00130560	      0.00308249	     -0.00062414	      0.00504408	      0.00226728	     -0.00226728	     -0.00504408	      0.00062414	     -3.62425340	      0.01273751	      3.62425340	    -15.62926953	    129.98985532	      0.00000000	      0.00000000	     -0.00000000	     -0.00000000	      0.00000000
      2.62626263	     -0.00179572	      0.00076058	     -0.00076058	      0.00179572	     -0.00036360	      0.00293846	      0.00132082	     -0.00132082	     -0.00293846	      0.00036360	     -5.62421990	      0.00742032	      5.62421990	    -15.98326561	    129.98043316	      0.00000000	      0.00000000	     -0.00000000	     -0.00000000	      0.00000000
      2.72727273	     -0.00332696	      0.00140914	     -0.00140914	      0.00332696	     -0.00067364	      0.00544414	      0.00244710	     -0.00244710	     -0.00544414	      0.00067364	     -8.44240794	      0.01374774	      8.44240794	    -16.34228087	    129.97944298	      0.00000000	      0.00000000	     -0.00000000	     -0.00000000	      0.00000000
      2.82828283	    -10.84919905	      4.59520866	     -4.59520866	     10.84919905	     -2.19674212	     17.75329707	      7.97998485	     -7.97998485	    -17.75329707	      2.19674212	    -32.21403388	     44.83130054	     32.21403388	     16.47119612	    129.66964887	      0.00000000	      0.00000000	     -0.00000000	     -0.00000000	      0.00000000
      2.92929293	     -9.30463342	      3.94100356	     -3.94100356	      9.30463342	     -1.88399900	     15.22581719	      6.84390004	     -6.84390004	    -15.22581719	      1.88399900	    -42.19922569	     38.44881227	     42.19922569	      9.89185492	    129.08709404	      0.00000000	      0.00000000	     -0.00000000	     -0.00000000	      0.00000000
